<mxfile host="app.diagrams.net" agent="Mozilla/5.0 (Windows NT 10.0; Win64; x64; rv:123.0) Gecko/20100101 Firefox/123.0" version="26.0.2">
  <diagram id="piDafpqhtRUU5qUU-vj8" name="Page-1">
    <mxGraphModel dx="2920" dy="968" grid="1" gridSize="10" guides="1" tooltips="1" connect="1" arrows="1" fold="1" page="1" pageScale="1" pageWidth="827" pageHeight="1169" math="0" shadow="0">
      <root>
        <mxCell id="0" />
        <mxCell id="1" parent="0" />
        <mxCell id="8962rQQDY3VNNf6We3Pp-1" value="" style="strokeWidth=1;shadow=0;dashed=0;align=center;html=1;shape=mxgraph.mockup.containers.browserWindow;rSize=0;strokeColor2=#008cff;strokeColor3=#c4c4c4;mainText=,;recursiveResize=0;strokeColor=#FFFFFF;fontColor=#FFFFFF;" parent="1" vertex="1">
          <mxGeometry y="130" width="1150" height="720" as="geometry" />
        </mxCell>
        <mxCell id="8962rQQDY3VNNf6We3Pp-2" value="Page 1" style="strokeWidth=1;shadow=0;dashed=0;align=center;html=1;shape=mxgraph.mockup.containers.anchor;fontSize=17;fontColor=#666666;align=left;" parent="8962rQQDY3VNNf6We3Pp-1" vertex="1">
          <mxGeometry x="60" y="12" width="110" height="26" as="geometry" />
        </mxCell>
        <mxCell id="8962rQQDY3VNNf6We3Pp-3" value="https://www.prestabanco.com/home" style="strokeWidth=1;shadow=0;dashed=0;align=center;html=1;shape=mxgraph.mockup.containers.anchor;rSize=0;fontSize=17;fontColor=#666666;align=left;" parent="8962rQQDY3VNNf6We3Pp-1" vertex="1">
          <mxGeometry x="130" y="60" width="250" height="26" as="geometry" />
        </mxCell>
        <mxCell id="tBvuIu0EhedEx3ogcRIf-3" value="&lt;span style=&quot;color: rgb(255, 255, 255);&quot;&gt;&amp;nbsp; PrestaBanco&lt;span style=&quot;white-space: pre;&quot;&gt;&#x9;PORTAL DEL CLIENTE&lt;span style=&quot;white-space: pre;&quot;&gt;&#x9;&lt;/span&gt;PORTAL DEL EJECUTIVO&lt;/span&gt;&lt;br&gt;&lt;/span&gt;" style="rounded=0;whiteSpace=wrap;html=1;fillColor=light-dark(#0080ff, #1d293b);strokeColor=#6c8ebf;align=left;" parent="8962rQQDY3VNNf6We3Pp-1" vertex="1">
          <mxGeometry y="110" width="1150" height="40" as="geometry" />
        </mxCell>
        <mxCell id="tBvuIu0EhedEx3ogcRIf-12" value="BLABLABLA" style="shape=rect;strokeColor=none;fillColor=none;fontSize=12;fontColor=#2196F3;dashed=0;" parent="8962rQQDY3VNNf6We3Pp-1" vertex="1">
          <mxGeometry x="180" y="420" width="75" height="40" as="geometry" />
        </mxCell>
        <mxCell id="tBvuIu0EhedEx3ogcRIf-24" value="BLABLABLA" style="shape=rect;strokeColor=none;fillColor=none;fontSize=12;fontColor=#2196F3;dashed=0;" parent="8962rQQDY3VNNf6We3Pp-1" vertex="1">
          <mxGeometry x="180" y="250" width="75" height="40" as="geometry" />
        </mxCell>
        <mxCell id="tBvuIu0EhedEx3ogcRIf-25" value="&lt;div&gt;BLABLABLABLABLABLABLABLABLABLABLABLA&lt;/div&gt;&lt;div&gt;BLABLABLABLABLABLABLABLABLABLABLABLA&lt;/div&gt;&lt;div&gt;BLABLABLABLABLABLABLABLABLABLABLABLA&lt;/div&gt;&lt;div&gt;BLABLABLABLABLABLABLABLABLABLABLABLA&lt;/div&gt;" style="shape=rect;strokeColor=none;fillColor=none;fontSize=12;fontColor=light-dark(#000000,#268BDB);dashed=0;align=left;verticalAlign=top;html=1;" parent="8962rQQDY3VNNf6We3Pp-1" vertex="1">
          <mxGeometry x="180" y="300" width="270" height="110" as="geometry" />
        </mxCell>
        <mxCell id="tBvuIu0EhedEx3ogcRIf-26" value="&lt;div&gt;BLABLABLABLABLABLABLABLABLABLABLABLA&lt;/div&gt;&lt;div&gt;BLABLABLABLABLABLABLABLABLABLABLABLA&lt;/div&gt;&lt;div&gt;BLABLABLABLABLABLABLABLABLABLABLABLA&lt;/div&gt;&lt;div&gt;BLABLABLABLABLABLABLABLABLABLABLABLA&lt;/div&gt;" style="shape=rect;strokeColor=none;fillColor=none;fontSize=12;fontColor=light-dark(#000000,#268BDB);dashed=0;align=left;verticalAlign=top;html=1;" parent="8962rQQDY3VNNf6We3Pp-1" vertex="1">
          <mxGeometry x="180" y="480" width="270" height="110" as="geometry" />
        </mxCell>
        <mxCell id="tBvuIu0EhedEx3ogcRIf-27" value="" style="endArrow=classic;html=1;rounded=0;fontStyle=0;strokeWidth=6;" parent="8962rQQDY3VNNf6We3Pp-1" edge="1">
          <mxGeometry width="50" height="50" relative="1" as="geometry">
            <mxPoint x="-20" y="340" as="sourcePoint" />
            <mxPoint x="270" y="150" as="targetPoint" />
          </mxGeometry>
        </mxCell>
        <mxCell id="k5UiWBhjMKIJhFkFpbOg-30" value="Español" style="rounded=1;html=1;align=left;fontSize=10;spacingLeft=10;fillColor=none;fontColor=#FFFFFF;" parent="8962rQQDY3VNNf6We3Pp-1" vertex="1">
          <mxGeometry x="1050" y="113.5" width="90" height="33" as="geometry" />
        </mxCell>
        <mxCell id="k5UiWBhjMKIJhFkFpbOg-31" value="" style="shape=triangle;direction=south;fillColor=#596780;strokeColor=none;html=1" parent="k5UiWBhjMKIJhFkFpbOg-30" vertex="1">
          <mxGeometry x="1" y="0.5" width="12" height="6" relative="1" as="geometry">
            <mxPoint x="-20" y="-3" as="offset" />
          </mxGeometry>
        </mxCell>
        <mxCell id="tBvuIu0EhedEx3ogcRIf-14" value="" style="strokeWidth=1;shadow=0;dashed=0;align=center;html=1;shape=mxgraph.mockup.containers.browserWindow;rSize=0;strokeColor2=#008cff;strokeColor3=#c4c4c4;mainText=,;recursiveResize=0;fillColor=#f5f5f5;fontColor=#333333;strokeColor=#666666;" parent="1" vertex="1">
          <mxGeometry y="850" width="1150" height="720" as="geometry" />
        </mxCell>
        <mxCell id="tBvuIu0EhedEx3ogcRIf-15" value="Page 2" style="strokeWidth=1;shadow=0;dashed=0;align=center;html=1;shape=mxgraph.mockup.containers.anchor;fontSize=17;fontColor=#666666;align=left;" parent="tBvuIu0EhedEx3ogcRIf-14" vertex="1">
          <mxGeometry x="60" y="12" width="110" height="26" as="geometry" />
        </mxCell>
        <mxCell id="tBvuIu0EhedEx3ogcRIf-16" value="https://www.prestabanco.com/executive/home" style="strokeWidth=1;shadow=0;dashed=0;align=center;html=1;shape=mxgraph.mockup.containers.anchor;rSize=0;fontSize=17;fontColor=#666666;align=left;" parent="tBvuIu0EhedEx3ogcRIf-14" vertex="1">
          <mxGeometry x="130" y="60" width="340" height="26" as="geometry" />
        </mxCell>
        <mxCell id="tBvuIu0EhedEx3ogcRIf-17" value="&lt;span style=&quot;color: rgb(255, 255, 255);&quot;&gt;&amp;nbsp; PrestaBanco&lt;span style=&quot;white-space: pre;&quot;&gt;&#x9;INICIAR SESIÓN&lt;/span&gt;&lt;br&gt;&lt;/span&gt;" style="rounded=0;whiteSpace=wrap;html=1;fillColor=light-dark(#0080ff, #1d293b);strokeColor=#6c8ebf;align=left;" parent="tBvuIu0EhedEx3ogcRIf-14" vertex="1">
          <mxGeometry y="110" width="1150" height="40" as="geometry" />
        </mxCell>
        <mxCell id="tBvuIu0EhedEx3ogcRIf-18" value="Bienvenido al Portal Ejecutivo de PrestaBanco" style="shape=rect;strokeColor=none;fillColor=none;fontSize=18;fontColor=#2196F3;dashed=0;fontStyle=1" parent="tBvuIu0EhedEx3ogcRIf-14" vertex="1">
          <mxGeometry x="380" y="279" width="310" height="40" as="geometry" />
        </mxCell>
        <mxCell id="tBvuIu0EhedEx3ogcRIf-28" value="" style="endArrow=classic;html=1;rounded=0;entryX=0.11;entryY=1.025;entryDx=0;entryDy=0;entryPerimeter=0;fontStyle=0;strokeWidth=6;exitX=0.002;exitY=0.488;exitDx=0;exitDy=0;exitPerimeter=0;" parent="tBvuIu0EhedEx3ogcRIf-14" edge="1">
          <mxGeometry width="50" height="50" relative="1" as="geometry">
            <mxPoint x="-20" y="350" as="sourcePoint" />
            <mxPoint x="105" y="150" as="targetPoint" />
          </mxGeometry>
        </mxCell>
        <mxCell id="tBvuIu0EhedEx3ogcRIf-29" value="&lt;div&gt;BLABLABLABLABLABLABLABLABLABLABLABLA&lt;/div&gt;&lt;div&gt;BLABLABLABLABLABLABLABLABLABLABLABLA&lt;/div&gt;&lt;div&gt;BLABLABLABLABLABLABLABLABLABLABLABLA&lt;/div&gt;&lt;div&gt;BLABLABLABLABLABLABLABLABLABLABLABLA&lt;/div&gt;" style="shape=rect;strokeColor=none;fillColor=none;fontSize=12;fontColor=light-dark(#000000,#268BDB);dashed=0;align=left;verticalAlign=top;html=1;" parent="tBvuIu0EhedEx3ogcRIf-14" vertex="1">
          <mxGeometry x="400" y="330" width="270" height="110" as="geometry" />
        </mxCell>
        <mxCell id="k5UiWBhjMKIJhFkFpbOg-27" value="Español" style="rounded=1;html=1;align=left;fontSize=10;spacingLeft=10;fillColor=none;fontColor=#FFFFFF;" parent="tBvuIu0EhedEx3ogcRIf-14" vertex="1">
          <mxGeometry x="1050" y="113.5" width="90" height="33" as="geometry" />
        </mxCell>
        <mxCell id="k5UiWBhjMKIJhFkFpbOg-28" value="" style="shape=triangle;direction=south;fillColor=#596780;strokeColor=none;html=1" parent="k5UiWBhjMKIJhFkFpbOg-27" vertex="1">
          <mxGeometry x="1" y="0.5" width="12" height="6" relative="1" as="geometry">
            <mxPoint x="-20" y="-3" as="offset" />
          </mxGeometry>
        </mxCell>
        <mxCell id="tBvuIu0EhedEx3ogcRIf-19" value="" style="strokeWidth=1;shadow=0;dashed=0;align=center;html=1;shape=mxgraph.mockup.containers.browserWindow;rSize=0;strokeColor2=#008cff;strokeColor3=#c4c4c4;mainText=,;recursiveResize=0;strokeColor=#FFFFFF;fontColor=#FFFFFF;" parent="1" vertex="1">
          <mxGeometry y="1570" width="1150" height="640" as="geometry" />
        </mxCell>
        <mxCell id="tBvuIu0EhedEx3ogcRIf-20" value="Page 3" style="strokeWidth=1;shadow=0;dashed=0;align=center;html=1;shape=mxgraph.mockup.containers.anchor;fontSize=17;fontColor=#666666;align=left;" parent="tBvuIu0EhedEx3ogcRIf-19" vertex="1">
          <mxGeometry x="60" y="12" width="110" height="26" as="geometry" />
        </mxCell>
        <mxCell id="tBvuIu0EhedEx3ogcRIf-21" value="https://www.prestabanco.com/executive/login" style="strokeWidth=1;shadow=0;dashed=0;align=center;html=1;shape=mxgraph.mockup.containers.anchor;rSize=0;fontSize=17;fontColor=#666666;align=left;" parent="tBvuIu0EhedEx3ogcRIf-19" vertex="1">
          <mxGeometry x="130" y="60" width="370" height="26" as="geometry" />
        </mxCell>
        <mxCell id="tBvuIu0EhedEx3ogcRIf-1" value="" style="whiteSpace=wrap;html=1;aspect=fixed;rounded=0;glass=0;shadow=0;" parent="tBvuIu0EhedEx3ogcRIf-19" vertex="1">
          <mxGeometry x="430" y="260" width="290" height="290" as="geometry" />
        </mxCell>
        <mxCell id="tBvuIu0EhedEx3ogcRIf-23" value="Iniciar Sesión" style="shape=rect;strokeColor=none;fillColor=none;fontSize=12;fontColor=#000000;dashed=0;" parent="tBvuIu0EhedEx3ogcRIf-19" vertex="1">
          <mxGeometry x="537" y="270" width="75" height="40" as="geometry" />
        </mxCell>
        <mxCell id="k5UiWBhjMKIJhFkFpbOg-3" value="&lt;div&gt;&lt;font style=&quot;font-size: 11px;&quot;&gt;&lt;font style=&quot;font-size: 10px;&quot;&gt;&amp;nbsp;&amp;nbsp;&amp;nbsp; ejemplo@correo.com&lt;br&gt;&lt;/font&gt;&lt;/font&gt;&lt;/div&gt;" style="rounded=1;whiteSpace=wrap;html=1;align=left;" parent="tBvuIu0EhedEx3ogcRIf-19" vertex="1">
          <mxGeometry x="455" y="350" width="240" height="40" as="geometry" />
        </mxCell>
        <mxCell id="k5UiWBhjMKIJhFkFpbOg-7" value="&lt;div&gt;&lt;font style=&quot;font-size: 11px;&quot;&gt;&lt;font style=&quot;font-size: 10px;&quot;&gt;&amp;nbsp;&amp;nbsp;&amp;nbsp; *********&lt;br&gt;&lt;/font&gt;&lt;/font&gt;&lt;/div&gt;" style="rounded=1;whiteSpace=wrap;html=1;align=left;" parent="tBvuIu0EhedEx3ogcRIf-19" vertex="1">
          <mxGeometry x="455" y="416" width="240" height="40" as="geometry" />
        </mxCell>
        <mxCell id="k5UiWBhjMKIJhFkFpbOg-12" value="ENTRAR" style="rounded=1;align=center;strokeColor=none;html=1;fontColor=#ffffff;fontSize=12;fillColor=#008CFF;" parent="tBvuIu0EhedEx3ogcRIf-19" vertex="1">
          <mxGeometry x="509.5" y="490" width="129" height="30" as="geometry" />
        </mxCell>
        <mxCell id="6br6NQ-63YLx0RwCt3kt-3" value="Correo Electrónico" style="text;html=1;align=center;verticalAlign=middle;resizable=0;points=[];autosize=1;strokeColor=none;fillColor=none;" vertex="1" parent="tBvuIu0EhedEx3ogcRIf-19">
          <mxGeometry x="444.5" y="323" width="130" height="30" as="geometry" />
        </mxCell>
        <mxCell id="6br6NQ-63YLx0RwCt3kt-4" value="Contraseña" style="text;html=1;align=center;verticalAlign=middle;resizable=0;points=[];autosize=1;strokeColor=none;fillColor=none;" vertex="1" parent="tBvuIu0EhedEx3ogcRIf-19">
          <mxGeometry x="448.5" y="390" width="90" height="30" as="geometry" />
        </mxCell>
        <mxCell id="6br6NQ-63YLx0RwCt3kt-5" value="" style="endArrow=classic;html=1;rounded=0;entryX=0.11;entryY=1.025;entryDx=0;entryDy=0;entryPerimeter=0;fontStyle=0;strokeWidth=6;" edge="1" parent="tBvuIu0EhedEx3ogcRIf-19">
          <mxGeometry width="50" height="50" relative="1" as="geometry">
            <mxPoint x="339.5" y="369.56999999999994" as="sourcePoint" />
            <mxPoint x="449.5" y="369.56999999999994" as="targetPoint" />
          </mxGeometry>
        </mxCell>
        <mxCell id="6br6NQ-63YLx0RwCt3kt-6" value="" style="endArrow=classic;html=1;rounded=0;entryX=0.11;entryY=1.025;entryDx=0;entryDy=0;entryPerimeter=0;fontStyle=0;strokeWidth=6;" edge="1" parent="tBvuIu0EhedEx3ogcRIf-19">
          <mxGeometry width="50" height="50" relative="1" as="geometry">
            <mxPoint x="339.5" y="435.56999999999994" as="sourcePoint" />
            <mxPoint x="449.5" y="435.56999999999994" as="targetPoint" />
          </mxGeometry>
        </mxCell>
        <mxCell id="6br6NQ-63YLx0RwCt3kt-7" value="" style="endArrow=classic;html=1;rounded=0;entryX=0.11;entryY=1.025;entryDx=0;entryDy=0;entryPerimeter=0;fontStyle=0;strokeWidth=6;" edge="1" parent="tBvuIu0EhedEx3ogcRIf-19">
          <mxGeometry width="50" height="50" relative="1" as="geometry">
            <mxPoint x="399.5" y="504.57000000000016" as="sourcePoint" />
            <mxPoint x="509.5" y="504.57000000000016" as="targetPoint" />
          </mxGeometry>
        </mxCell>
        <mxCell id="6br6NQ-63YLx0RwCt3kt-8" value="Ingresar contraseña de ejecutivo" style="text;html=1;align=center;verticalAlign=middle;whiteSpace=wrap;rounded=0;fontStyle=1;fontSize=18;" vertex="1" parent="tBvuIu0EhedEx3ogcRIf-19">
          <mxGeometry x="210" y="406.5" width="110" height="59" as="geometry" />
        </mxCell>
        <mxCell id="6br6NQ-63YLx0RwCt3kt-9" value="Click" style="text;html=1;align=center;verticalAlign=middle;whiteSpace=wrap;rounded=0;fontStyle=1;fontSize=18;" vertex="1" parent="tBvuIu0EhedEx3ogcRIf-19">
          <mxGeometry x="290" y="475.5" width="110" height="59" as="geometry" />
        </mxCell>
        <mxCell id="k5UiWBhjMKIJhFkFpbOg-21" value="Ingresar correo de ejecutivo" style="text;html=1;align=center;verticalAlign=middle;whiteSpace=wrap;rounded=0;fontStyle=1;fontSize=18;" parent="tBvuIu0EhedEx3ogcRIf-19" vertex="1">
          <mxGeometry x="210" y="340.5" width="110" height="59" as="geometry" />
        </mxCell>
        <mxCell id="6br6NQ-63YLx0RwCt3kt-30" value="&lt;span style=&quot;color: rgb(255, 255, 255);&quot;&gt;&amp;nbsp; PrestaBanco&lt;span style=&quot;white-space: pre;&quot;&gt;&#x9;INICIAR SESIÓN&lt;/span&gt;&lt;br&gt;&lt;/span&gt;" style="rounded=0;whiteSpace=wrap;html=1;fillColor=light-dark(#0080ff, #1d293b);strokeColor=#6c8ebf;align=left;" vertex="1" parent="tBvuIu0EhedEx3ogcRIf-19">
          <mxGeometry y="110" width="1150" height="40" as="geometry" />
        </mxCell>
        <mxCell id="k5UiWBhjMKIJhFkFpbOg-25" value="Español" style="rounded=1;html=1;align=left;fontSize=10;spacingLeft=10;fillColor=none;fontColor=#FFFFFF;" parent="tBvuIu0EhedEx3ogcRIf-19" vertex="1">
          <mxGeometry x="1050" y="113.5" width="90" height="33" as="geometry" />
        </mxCell>
        <mxCell id="k5UiWBhjMKIJhFkFpbOg-26" value="" style="shape=triangle;direction=south;fillColor=#596780;strokeColor=none;html=1" parent="k5UiWBhjMKIJhFkFpbOg-25" vertex="1">
          <mxGeometry x="1" y="0.5" width="12" height="6" relative="1" as="geometry">
            <mxPoint x="-20" y="-3" as="offset" />
          </mxGeometry>
        </mxCell>
        <mxCell id="tBvuIu0EhedEx3ogcRIf-31" value="Click" style="text;html=1;align=center;verticalAlign=middle;whiteSpace=wrap;rounded=0;fontStyle=1;fontSize=18;" parent="1" vertex="1">
          <mxGeometry x="-100" y="1100" width="110" height="59" as="geometry" />
        </mxCell>
        <mxCell id="tBvuIu0EhedEx3ogcRIf-32" value="Click" style="text;html=1;align=center;verticalAlign=middle;whiteSpace=wrap;rounded=0;fontStyle=1;fontSize=18;" parent="1" vertex="1">
          <mxGeometry x="-80" y="350" width="110" height="59" as="geometry" />
        </mxCell>
        <mxCell id="k5UiWBhjMKIJhFkFpbOg-13" value="" style="endArrow=classic;html=1;rounded=0;entryX=0.11;entryY=1.025;entryDx=0;entryDy=0;entryPerimeter=0;fontStyle=0;strokeWidth=6;" parent="1" edge="1">
          <mxGeometry width="50" height="50" relative="1" as="geometry">
            <mxPoint x="-110" y="3112" as="sourcePoint" />
            <mxPoint y="3132" as="targetPoint" />
          </mxGeometry>
        </mxCell>
        <mxCell id="6br6NQ-63YLx0RwCt3kt-11" value="" style="strokeWidth=1;shadow=0;dashed=0;align=center;html=1;shape=mxgraph.mockup.containers.browserWindow;rSize=0;strokeColor2=#008cff;strokeColor3=#c4c4c4;mainText=,;recursiveResize=0;strokeColor=#FFFFFF;fontColor=#FFFFFF;" vertex="1" parent="1">
          <mxGeometry y="2922" width="1150" height="720" as="geometry" />
        </mxCell>
        <mxCell id="6br6NQ-63YLx0RwCt3kt-12" value="Page 5" style="strokeWidth=1;shadow=0;dashed=0;align=center;html=1;shape=mxgraph.mockup.containers.anchor;fontSize=17;fontColor=#666666;align=left;" vertex="1" parent="6br6NQ-63YLx0RwCt3kt-11">
          <mxGeometry x="60" y="12" width="110" height="26" as="geometry" />
        </mxCell>
        <mxCell id="6br6NQ-63YLx0RwCt3kt-13" value="https://www.prestabanco.com/executive/management" style="strokeWidth=1;shadow=0;dashed=0;align=center;html=1;shape=mxgraph.mockup.containers.anchor;rSize=0;fontSize=17;fontColor=#666666;align=left;" vertex="1" parent="6br6NQ-63YLx0RwCt3kt-11">
          <mxGeometry x="130" y="60" width="390" height="26" as="geometry" />
        </mxCell>
        <mxCell id="6br6NQ-63YLx0RwCt3kt-14" value="&lt;span style=&quot;color: rgb(255, 255, 255);&quot;&gt;&amp;nbsp; &lt;/span&gt;&lt;span style=&quot;color: rgb(255, 255, 255);&quot;&gt;PrestaBanco&lt;span style=&quot;white-space: pre;&quot;&gt;&#x9;GESTIÓN&lt;span style=&quot;white-space: pre;&quot;&gt;&#x9;&lt;/span&gt;&lt;span style=&quot;white-space: pre;&quot;&gt;&#x9;PERFIL&lt;/span&gt;&lt;span style=&quot;white-space: pre;&quot;&gt;&#x9;&lt;span style=&quot;white-space: pre;&quot;&gt;&#x9;CERRAR SESIÓN&lt;/span&gt;&lt;/span&gt;&lt;/span&gt;&lt;/span&gt;" style="rounded=0;whiteSpace=wrap;html=1;fillColor=light-dark(#0080ff, #1d293b);strokeColor=#6c8ebf;align=left;" vertex="1" parent="6br6NQ-63YLx0RwCt3kt-11">
          <mxGeometry y="110" width="1150" height="40" as="geometry" />
        </mxCell>
        <mxCell id="6br6NQ-63YLx0RwCt3kt-16" value="Gestión de Solicitudes de Clientes" style="shape=rect;strokeColor=none;fillColor=none;fontSize=14;fontColor=#000000;dashed=0;fontStyle=1" vertex="1" parent="6br6NQ-63YLx0RwCt3kt-11">
          <mxGeometry x="20" y="150" width="240" height="40" as="geometry" />
        </mxCell>
        <mxCell id="6br6NQ-63YLx0RwCt3kt-20" value="Español" style="rounded=1;html=1;align=left;fontSize=10;spacingLeft=10;fillColor=none;fontColor=#FFFFFF;" vertex="1" parent="6br6NQ-63YLx0RwCt3kt-11">
          <mxGeometry x="1050" y="113.5" width="90" height="33" as="geometry" />
        </mxCell>
        <mxCell id="6br6NQ-63YLx0RwCt3kt-21" value="" style="shape=triangle;direction=south;fillColor=#596780;strokeColor=none;html=1" vertex="1" parent="6br6NQ-63YLx0RwCt3kt-20">
          <mxGeometry x="1" y="0.5" width="12" height="6" relative="1" as="geometry">
            <mxPoint x="-20" y="-3" as="offset" />
          </mxGeometry>
        </mxCell>
        <mxCell id="6br6NQ-63YLx0RwCt3kt-33" value="" style="rounded=1;whiteSpace=wrap;html=1;" vertex="1" parent="6br6NQ-63YLx0RwCt3kt-11">
          <mxGeometry x="10" y="190" width="1120" height="170" as="geometry" />
        </mxCell>
        <mxCell id="6br6NQ-63YLx0RwCt3kt-36" value="" style="rounded=1;whiteSpace=wrap;html=1;" vertex="1" parent="6br6NQ-63YLx0RwCt3kt-11">
          <mxGeometry x="10" y="370" width="1120" height="170" as="geometry" />
        </mxCell>
        <mxCell id="6br6NQ-63YLx0RwCt3kt-35" value="&lt;div&gt;Tipo de Préstamo:&lt;/div&gt;&lt;div&gt;Años: &lt;br&gt;&lt;/div&gt;&lt;div&gt;Interés: &lt;br&gt;&lt;/div&gt;&lt;div&gt;Valor de la Propiedad:&lt;/div&gt;&lt;div&gt;Archivos:&lt;/div&gt;&lt;div&gt;&lt;span style=&quot;white-space: pre;&quot;&gt;&#x9;&lt;/span&gt;&lt;span style=&quot;white-space: pre;&quot;&gt;&#x9;&lt;/span&gt;-&lt;/div&gt;&lt;div&gt;&lt;span style=&quot;white-space: pre;&quot;&gt;&#x9;&lt;/span&gt;&lt;span style=&quot;white-space: pre;&quot;&gt;&#x9;&lt;/span&gt;-&lt;/div&gt;&lt;div&gt;&lt;span style=&quot;white-space: pre;&quot;&gt;&#x9;&lt;/span&gt;&lt;span style=&quot;white-space: pre;&quot;&gt;&#x9;&lt;/span&gt;-&lt;br&gt;&lt;/div&gt;&lt;div&gt;&lt;span style=&quot;white-space: pre;&quot;&gt;&#x9;&lt;/span&gt;&lt;span style=&quot;white-space: pre;&quot;&gt;&#x9;&lt;/span&gt;-&lt;/div&gt;&lt;div&gt;Estado&lt;br&gt;&lt;/div&gt;" style="text;html=1;align=left;verticalAlign=middle;resizable=0;points=[];autosize=1;strokeColor=none;fillColor=none;" vertex="1" parent="6br6NQ-63YLx0RwCt3kt-11">
          <mxGeometry x="20" y="375" width="140" height="160" as="geometry" />
        </mxCell>
        <mxCell id="6br6NQ-63YLx0RwCt3kt-38" value="ACEPTAR" style="rounded=1;align=center;strokeColor=none;html=1;fontColor=#ffffff;fontSize=12;fillColor=#008CFF;" vertex="1" parent="6br6NQ-63YLx0RwCt3kt-11">
          <mxGeometry x="900" y="440" width="90" height="30" as="geometry" />
        </mxCell>
        <mxCell id="6br6NQ-63YLx0RwCt3kt-39" value="RECHAZAR" style="rounded=1;align=center;strokeColor=none;html=1;fontColor=#ffffff;fontSize=12;fillColor=#7F00FF;" vertex="1" parent="6br6NQ-63YLx0RwCt3kt-11">
          <mxGeometry x="1010" y="440" width="90" height="30" as="geometry" />
        </mxCell>
        <mxCell id="6br6NQ-63YLx0RwCt3kt-19" value="ACEPTAR" style="rounded=1;align=center;strokeColor=none;html=1;fontColor=#ffffff;fontSize=12;fillColor=#008CFF;" vertex="1" parent="6br6NQ-63YLx0RwCt3kt-11">
          <mxGeometry x="900" y="255" width="90" height="30" as="geometry" />
        </mxCell>
        <mxCell id="6br6NQ-63YLx0RwCt3kt-37" value="RECHAZAR" style="rounded=1;align=center;strokeColor=none;html=1;fontColor=#ffffff;fontSize=12;fillColor=#7F00FF;" vertex="1" parent="6br6NQ-63YLx0RwCt3kt-11">
          <mxGeometry x="1010" y="255" width="90" height="30" as="geometry" />
        </mxCell>
        <mxCell id="6br6NQ-63YLx0RwCt3kt-23" value="&lt;div&gt;Tipo de Préstamo:&lt;/div&gt;&lt;div&gt;Años: &lt;br&gt;&lt;/div&gt;&lt;div&gt;Interés: &lt;br&gt;&lt;/div&gt;&lt;div&gt;Valor de la Propiedad:&lt;/div&gt;&lt;div&gt;Archivos:&lt;/div&gt;&lt;div&gt;&lt;span style=&quot;white-space: pre;&quot;&gt;&#x9;&lt;/span&gt;&lt;span style=&quot;white-space: pre;&quot;&gt;&#x9;&lt;/span&gt;- Documento de ingreso&lt;br&gt;&lt;/div&gt;&lt;div&gt;&lt;span style=&quot;white-space: pre;&quot;&gt;&#x9;&lt;/span&gt;&lt;span style=&quot;white-space: pre;&quot;&gt;&#x9;&lt;/span&gt;-&lt;/div&gt;&lt;div&gt;&lt;span style=&quot;white-space: pre;&quot;&gt;&#x9;&lt;/span&gt;&lt;span style=&quot;white-space: pre;&quot;&gt;&#x9;&lt;/span&gt;-&lt;br&gt;&lt;/div&gt;&lt;div&gt;&lt;span style=&quot;white-space: pre;&quot;&gt;&#x9;&lt;/span&gt;&lt;span style=&quot;white-space: pre;&quot;&gt;&#x9;&lt;/span&gt;-&lt;/div&gt;&lt;div&gt;Estado&lt;br&gt;&lt;/div&gt;" style="text;html=1;align=left;verticalAlign=middle;resizable=0;points=[];autosize=1;strokeColor=none;fillColor=none;" vertex="1" parent="6br6NQ-63YLx0RwCt3kt-11">
          <mxGeometry x="20" y="195" width="200" height="160" as="geometry" />
        </mxCell>
        <mxCell id="6br6NQ-63YLx0RwCt3kt-40" value="" style="endArrow=classic;html=1;rounded=0;fontStyle=0;strokeWidth=6;" edge="1" parent="6br6NQ-63YLx0RwCt3kt-11">
          <mxGeometry width="50" height="50" relative="1" as="geometry">
            <mxPoint x="-120" y="300" as="sourcePoint" />
            <mxPoint x="70" y="284.9985714285717" as="targetPoint" />
          </mxGeometry>
        </mxCell>
        <mxCell id="6br6NQ-63YLx0RwCt3kt-41" value="" style="endArrow=classic;html=1;rounded=0;fontStyle=0;strokeWidth=6;entryX=0;entryY=0.25;entryDx=0;entryDy=0;exitX=1;exitY=0.5;exitDx=0;exitDy=0;" edge="1" parent="6br6NQ-63YLx0RwCt3kt-11" source="6br6NQ-63YLx0RwCt3kt-42" target="6br6NQ-63YLx0RwCt3kt-19">
          <mxGeometry width="50" height="50" relative="1" as="geometry">
            <mxPoint x="710" y="240" as="sourcePoint" />
            <mxPoint x="900" y="224.99857142857172" as="targetPoint" />
          </mxGeometry>
        </mxCell>
        <mxCell id="6br6NQ-63YLx0RwCt3kt-42" value="Click para aceptar solicitud" style="text;html=1;align=center;verticalAlign=middle;whiteSpace=wrap;rounded=0;fontStyle=1;fontSize=18;" vertex="1" parent="6br6NQ-63YLx0RwCt3kt-11">
          <mxGeometry x="590" y="220" width="110" height="59" as="geometry" />
        </mxCell>
        <mxCell id="6br6NQ-63YLx0RwCt3kt-43" value="" style="endArrow=classic;html=1;rounded=0;fontStyle=0;strokeWidth=6;entryX=0.173;entryY=0.93;entryDx=0;entryDy=0;exitX=1;exitY=0.5;exitDx=0;exitDy=0;entryPerimeter=0;" edge="1" source="6br6NQ-63YLx0RwCt3kt-44" parent="6br6NQ-63YLx0RwCt3kt-11" target="6br6NQ-63YLx0RwCt3kt-37">
          <mxGeometry width="50" height="50" relative="1" as="geometry">
            <mxPoint x="710" y="316" as="sourcePoint" />
            <mxPoint x="900" y="339" as="targetPoint" />
          </mxGeometry>
        </mxCell>
        <mxCell id="6br6NQ-63YLx0RwCt3kt-44" value="Click para rechazar solicitud" style="text;html=1;align=center;verticalAlign=middle;whiteSpace=wrap;rounded=0;fontStyle=1;fontSize=18;" vertex="1" parent="6br6NQ-63YLx0RwCt3kt-11">
          <mxGeometry x="590" y="296" width="110" height="59" as="geometry" />
        </mxCell>
        <mxCell id="6br6NQ-63YLx0RwCt3kt-29" value="Información de las solicitudes" style="text;html=1;align=center;verticalAlign=middle;whiteSpace=wrap;rounded=0;fontStyle=1;fontSize=18;" vertex="1" parent="1">
          <mxGeometry x="-240" y="3072" width="110" height="59" as="geometry" />
        </mxCell>
        <mxCell id="6br6NQ-63YLx0RwCt3kt-27" value="Click para descargar archivos" style="text;html=1;align=center;verticalAlign=middle;whiteSpace=wrap;rounded=0;fontStyle=1;fontSize=18;" vertex="1" parent="1">
          <mxGeometry x="-240" y="3202" width="110" height="59" as="geometry" />
        </mxCell>
        <mxCell id="6br6NQ-63YLx0RwCt3kt-75" value="" style="strokeWidth=1;shadow=0;dashed=0;align=center;html=1;shape=mxgraph.mockup.containers.browserWindow;rSize=0;strokeColor2=#008cff;strokeColor3=#c4c4c4;mainText=,;recursiveResize=0;fillColor=#f5f5f5;fontColor=#333333;strokeColor=#666666;" vertex="1" parent="1">
          <mxGeometry x="10" y="2202" width="1150" height="720" as="geometry" />
        </mxCell>
        <mxCell id="6br6NQ-63YLx0RwCt3kt-76" value="Page 4" style="strokeWidth=1;shadow=0;dashed=0;align=center;html=1;shape=mxgraph.mockup.containers.anchor;fontSize=17;fontColor=#666666;align=left;" vertex="1" parent="6br6NQ-63YLx0RwCt3kt-75">
          <mxGeometry x="60" y="12" width="110" height="26" as="geometry" />
        </mxCell>
        <mxCell id="6br6NQ-63YLx0RwCt3kt-77" value="https://www.prestabanco.com/executive/home" style="strokeWidth=1;shadow=0;dashed=0;align=center;html=1;shape=mxgraph.mockup.containers.anchor;rSize=0;fontSize=17;fontColor=#666666;align=left;" vertex="1" parent="6br6NQ-63YLx0RwCt3kt-75">
          <mxGeometry x="130" y="60" width="340" height="26" as="geometry" />
        </mxCell>
        <mxCell id="6br6NQ-63YLx0RwCt3kt-78" value="&lt;span style=&quot;color: rgb(255, 255, 255);&quot;&gt;&amp;nbsp; &lt;/span&gt;&lt;span style=&quot;color: rgb(255, 255, 255);&quot;&gt;PrestaBanco&lt;span style=&quot;white-space: pre;&quot;&gt;&#x9;GESTIÓN&lt;span style=&quot;white-space: pre;&quot;&gt;&#x9;&lt;/span&gt;&lt;span style=&quot;white-space: pre;&quot;&gt;&#x9;PERFIL&lt;/span&gt;&lt;span style=&quot;white-space: pre;&quot;&gt;&#x9;&lt;span style=&quot;white-space: pre;&quot;&gt;&#x9;CERRAR SESIÓN&lt;/span&gt;&lt;/span&gt;&lt;/span&gt;&lt;/span&gt;" style="rounded=0;whiteSpace=wrap;html=1;fillColor=light-dark(#0080ff, #1d293b);strokeColor=#6c8ebf;align=left;" vertex="1" parent="6br6NQ-63YLx0RwCt3kt-75">
          <mxGeometry y="110" width="1150" height="40" as="geometry" />
        </mxCell>
        <mxCell id="6br6NQ-63YLx0RwCt3kt-79" value="Bienvenido al Portal Ejecutivo de PrestaBanco" style="shape=rect;strokeColor=none;fillColor=none;fontSize=18;fontColor=#2196F3;dashed=0;fontStyle=1" vertex="1" parent="6br6NQ-63YLx0RwCt3kt-75">
          <mxGeometry x="380" y="279" width="310" height="40" as="geometry" />
        </mxCell>
        <mxCell id="6br6NQ-63YLx0RwCt3kt-80" value="" style="endArrow=classic;html=1;rounded=0;entryX=0.11;entryY=1.025;entryDx=0;entryDy=0;entryPerimeter=0;fontStyle=0;strokeWidth=6;exitX=0.002;exitY=0.488;exitDx=0;exitDy=0;exitPerimeter=0;" edge="1" parent="6br6NQ-63YLx0RwCt3kt-75">
          <mxGeometry width="50" height="50" relative="1" as="geometry">
            <mxPoint x="-20" y="350" as="sourcePoint" />
            <mxPoint x="105" y="150" as="targetPoint" />
          </mxGeometry>
        </mxCell>
        <mxCell id="6br6NQ-63YLx0RwCt3kt-81" value="&lt;div&gt;BLABLABLABLABLABLABLABLABLABLABLABLA&lt;/div&gt;&lt;div&gt;BLABLABLABLABLABLABLABLABLABLABLABLA&lt;/div&gt;&lt;div&gt;BLABLABLABLABLABLABLABLABLABLABLABLA&lt;/div&gt;&lt;div&gt;BLABLABLABLABLABLABLABLABLABLABLABLA&lt;/div&gt;" style="shape=rect;strokeColor=none;fillColor=none;fontSize=12;fontColor=light-dark(#000000,#268BDB);dashed=0;align=left;verticalAlign=top;html=1;" vertex="1" parent="6br6NQ-63YLx0RwCt3kt-75">
          <mxGeometry x="400" y="330" width="270" height="110" as="geometry" />
        </mxCell>
        <mxCell id="6br6NQ-63YLx0RwCt3kt-82" value="Español" style="rounded=1;html=1;align=left;fontSize=10;spacingLeft=10;fillColor=none;fontColor=#FFFFFF;" vertex="1" parent="6br6NQ-63YLx0RwCt3kt-75">
          <mxGeometry x="1050" y="113.5" width="90" height="33" as="geometry" />
        </mxCell>
        <mxCell id="6br6NQ-63YLx0RwCt3kt-83" value="" style="shape=triangle;direction=south;fillColor=#596780;strokeColor=none;html=1" vertex="1" parent="6br6NQ-63YLx0RwCt3kt-82">
          <mxGeometry x="1" y="0.5" width="12" height="6" relative="1" as="geometry">
            <mxPoint x="-20" y="-3" as="offset" />
          </mxGeometry>
        </mxCell>
      </root>
    </mxGraphModel>
  </diagram>
</mxfile>
